PathFileType	4	(X/Y/Z)	61_2_80_p0_0-570_filt_butterworth.trc
DataRate	CameraRate	NumFrames	NumMarkers	Units	OrigDataRate	OrigDataStartFrame	OrigNumFrames
59.0	59.0	6	27	m	59.0	0	570
Frame#	Time	RHip			RKnee			RAnkle			RBigToe			RSmallToe			RHeel			LHip			LKnee			LAnkle			LBigToe			LSmallToe			LHeel			Neck			Head			Nose			RShoulder			RElbow			RWrist			RThumb			RIndex			RPinky			LShoulder			LElbow			LWrist			LThumb			LIndex			LPinky			
		X1	Y1	Z1	X2	Y2	Z2	X3	Y3	Z3	X4	Y4	Z4	X5	Y5	Z5	X6	Y6	Z6	X7	Y7	Z7	X8	Y8	Z8	X9	Y9	Z9	X10	Y10	Z10	X11	Y11	Z11	X12	Y12	Z12	X13	Y13	Z13	X14	Y14	Z14	X15	Y15	Z15	X16	Y16	Z16	X17	Y17	Z17	X18	Y18	Z18	X19	Y19	Z19	X20	Y20	Z20	X21	Y21	Z21	X22	Y22	Z22	X23	Y23	Z23	X24	Y24	Z24	X25	Y25	Z25	X26	Y26	Z26	X27	Y27	Z27	
0	0.0	0.3447061886448525	0.6352329261024732	0.9710011457854457	0.3422765832784725	0.8134148916100414	1.4015778604697158	0.3382335589170653	0.8742685526640832	1.7587627264383325	0.3137986607591136	0.7708467724382606	1.8279537521518026	0.39482643933973705	0.7928806633442487	1.8222022580990462	0.2958085184919327	0.9265453988142252	1.8072376046438552	0.1272338441255403	0.6290536120108072	0.9899326739050821	0.09674874840206238	0.7480468355301911	1.4112132773650534	0.08015180102283406	0.8126060224041425	1.7759365736211035	0.1372686616579174	0.7646006328050043	1.8496279621244	0.06532731304798338	0.7694310707196186	1.840539251253449	0.05897658125969997	0.8984565693452224	1.8208213279341647	0.23903658334831804	0.49004046972482407	0.438308577537762	0.237662325546393	0.41154444181607286	0.2006803711379963	0.23642828005417452	0.3731900149825309	0.33975187258581774	0.4023217372190068	0.5594971463571654	0.5115676642515377	0.4409341898221398	0.5186716723149972	0.7612484561674683	0.3034363600685337	0.4845930782066322	0.9483295708039896	0.2546192818297121	0.5121804966631252	1.038304527308871	0.2378436226172846	0.5129156946509635	1.0441299166534146	0.22092896176519278	0.5086629712657479	1.0448198791877579	0.07824478303199826	0.548216129340254	0.5096455159109758	0.06412468209055369	0.5110031157505962	0.7811570636717972	0.1932895879668693	0.47110145325627706	0.9558377957710849	0.2981462470104802	0.4330203554767201	0.9885229117173612	0.29706064341505883	0.4735571727912152	1.0328508929219182	0.23395464871999294	0.48898835368753224	1.057549593577791
1	0.0169491525423728	0.3449321552827699	0.6368828326747379	0.9782323320807029	0.34218376619151986	0.8041143741064546	1.4023023496551899	0.33974179914335684	0.8824391080784261	1.7611604198280388	0.31441639105508384	0.7724212335984189	1.8308797093113207	0.3941604233687614	0.7899973039169893	1.8210226902424491	0.2954092748303029	0.9359036644273548	1.8127572878329907	0.12733114818422245	0.6287854913485112	0.992412512778501	0.09659888281602913	0.7472177299601586	1.410019467589185	0.07654007298823534	0.8275954637785059	1.7811744934617886	0.13704595735939773	0.7642653228247055	1.8488172780183139	0.06370230975528324	0.767890351163164	1.840315799670915	0.057167436945209094	0.9208213821301003	1.8289846110559203	0.23900394729065116	0.4900464946672457	0.4383578501098781	0.23740182526119752	0.4114080259036172	0.20075348549212907	0.23778007194547052	0.38085952359204606	0.34080647920210394	0.402290519163478	0.5596508367261819	0.511556601487688	0.43943582629649114	0.5235730958107244	0.7615607808218919	0.303398349441039	0.48456855765631607	0.9483455294251526	0.2521844982233393	0.4991826368702703	1.0373138509034057	0.23575515216450887	0.5091291002329371	1.045595984731487	0.2220423481842491	0.5086400008377485	1.0460592838359677	0.0782742346137445	0.5481464792677864	0.509585532861391	0.06430418664513202	0.5111868894235033	0.7811490437632016	0.19652250315642894	0.46309727185309635	0.954865850188117	0.2954155630121366	0.42462986763465504	0.9884554553702456	0.295844059421836	0.4657105246247454	1.0324225979346804	0.23416461539083563	0.48879769043861393	1.0575779980412523
2	0.0338983050847457	0.3449503534377707	0.6374095339161928	0.981755756796444	0.34257193975032196	0.7986047244338035	1.4027734794923903	0.3401013269045313	0.8845046248615469	1.7617609295924317	0.3147969930693292	0.7733549545156775	1.8326930379017492	0.39409670969143173	0.7891255963085381	1.8214891439534409	0.295146028411828	0.9413868640212592	1.8160644306623857	0.12734481778352602	0.6288080995728329	0.9939676793902699	0.09661692199255616	0.7470961544294397	1.4099757874490069	0.07420438531758196	0.8341592966303089	1.7842272779913433	0.13710458142248705	0.7637899312078333	1.8487861588189065	0.06320430868930853	0.7670443155833164	1.8401651219631128	0.055978576710410524	0.9338022228375598	1.8345121023593176	0.23897695306019207	0.4900320397998054	0.4383832500372268	0.23652724923848503	0.41103958647805716	0.2008764541743611	0.23856187818208902	0.3854191662524621	0.3414255368689199	0.40226453698947867	0.5597335747285971	0.5115458877763335	0.43799089259383134	0.5283018288934218	0.7618630519352666	0.30332573982315575	0.48451353331076524	0.948367994535598	0.24983707870391228	0.4935885080856841	1.0376901103323315	0.2338323621270235	0.506337928076723	1.0477100266238295	0.22217821345080738	0.5083755176097036	1.0472371949763217	0.07829005148629	0.5481042818847787	0.5095473748890968	0.0643904969274989	0.5112825602022557	0.7811232995633285	0.19845811458173704	0.45830617209260677	0.9542933253383659	0.2937027062047327	0.41973870275714026	0.9892364390734453	0.2950252641182524	0.461306680084106	1.0327893801596877	0.23416322268501125	0.4889013017017803	1.0576351387717073
3	0.0508474576271186	0.34478490456949357	0.6368716913862441	0.9815542862391824	0.3432041069993925	0.7974043612221313	1.403015342831356	0.3393928184565958	0.8808727816819308	1.7606443802340155	0.3149127058730551	0.7736360142038408	1.8332686907929374	0.3947001370393313	0.7910325010782586	1.8232883559575885	0.29504949406859166	0.9428047283060303	1.8169709577410729	0.12743119658565585	0.6287644546271922	0.9944791062972635	0.0967479745549367	0.7474746001087051	1.4107263117099638	0.07331283892084081	0.8334128656133448	1.7855641346348847	0.13728731437875022	0.763103222198133	1.849126089427721	0.06343713199961193	0.7665012644045798	1.8400866442946793	0.05539711640569168	0.9367338568763465	1.8368845927057134	0.23895581099915245	0.49001075850863995	0.4383862787963461	0.23521025136594736	0.4105042770207634	0.20102848611270996	0.2387476139126002	0.38665564521613627	0.34158552010910886	0.4022474545604692	0.5597551588372652	0.5115384715153055	0.4369813452055966	0.5315765037877116	0.7620808151809726	0.30333074554693634	0.48446417434835587	0.9483845505508045	0.24810813538349655	0.49475125318645885	1.039148519094578	0.23252604357003104	0.5047421746127121	1.0499412076584893	0.22159146074587277	0.5080968323342512	1.0480193593361722	0.07828451837233788	0.5480857925781252	0.5095322266957877	0.06436757077164126	0.5112707638798595	0.7810883006290446	0.1990117668970018	0.4569498463218844	0.9541488677284495	0.2930052446425422	0.41890142330389546	0.9906789405813442	0.29466879852036176	0.46045967699818435	1.0338178663943756	0.23357439308185723	0.4901558604669584	1.0578561174105974
4	0.0677966101694915	0.34461520512248317	0.636126853922732	0.9801034414301073	0.343872813395542	0.7993710545737706	1.4033178553762893	0.3385365423639691	0.8763755945661502	1.7591961290582825	0.3148844320134882	0.7736304470092594	1.8331741831183361	0.3953669918729483	0.7936251753826411	1.824584624185897	0.29505252811695876	0.9423465326500677	1.8167090205366097	0.12806732468873455	0.6274013867762224	0.9941867071002826	0.09685550660180679	0.7478130827527414	1.4113906266173988	0.0732427262870306	0.8313766480245766	1.7871546579023385	0.13709067236442124	0.7622153995776271	1.8491933852722626	0.0637916910278961	0.7649660319230143	1.8400610684855172	0.05500142842960396	0.9348638887634767	1.8368418517529168	0.238939617108458	0.49001031331664957	0.43838558874278055	0.2341643268647054	0.41008078261558717	0.2011382921900248	0.23868038749104956	0.3863055258754182	0.3415347630451286	0.4022403289573233	0.5597721736483734	0.5115382087528046	0.43660352384033796	0.532754445172644	0.7621726506782789	0.30370532262625655	0.48451870275132	0.9483685197056955	0.24727801945790803	0.4977379212730607	1.0404823221739574	0.23193318057867113	0.5043066565020241	1.0513017880499234	0.2211204898329605	0.5077590603492831	1.0482993304847752	0.07825935020763615	0.5480735100877656	0.5095226097635536	0.06428998801294626	0.5112023762219084	0.7810673474478182	0.19891233088496632	0.45723851928513215	0.9542066265713377	0.2929636675315532	0.42041970587881117	0.991813559081695	0.29459504450136026	0.46107024469480734	1.0347454580887916	0.23211041783382996	0.49328426648162965	1.0583628029358536
5	0.0847457627118644	0.344545720516188	0.635731376307069	0.9791476393108729	0.3448149922015473	0.8037336487760941	1.4039495667876754	0.33811913614241973	0.8740312659315079	1.7583371980062932	0.3148249211622425	0.773579617399655	1.8329355491256725	0.3953995363470763	0.793688702508215	1.8240791247107562	0.2950767348095114	0.9416929110574791	1.8163191571465356	0.12961897747620205	0.6235491040298438	0.993016316254842	0.09689800206914219	0.747949429069528	1.4116991911726235	0.07338160040049328	0.8309623021849615	1.7888225834555622	0.13610243951795722	0.7617476373945375	1.8493998860739165	0.06460207110758726	0.7618740765992535	1.840083972771053	0.05466312196390586	0.9326577794368964	1.8351711422063148	0.23892997685072537	0.49002884810700514	0.4383896489439715	0.23374417008628307	0.4099144672539856	0.2011742491217204	0.23862190572726122	0.3857786322557991	0.34146788839939135	0.4022405163216491	0.55980831175001	0.511546723355605	0.43661619531421686	0.5326592980184088	0.7621821982963511	0.30467047102029343	0.4846717817202233	0.9483013863278619	0.24702732258829058	0.4996794956748269	1.0411023912085868	0.2318460684446247	0.5058073775435838	1.0516977988809642	0.22136039469494592	0.5063899964574834	1.0484247086881429	0.07822880634285642	0.5480621635298908	0.5095051862037255	0.06421592582911818	0.5111120077423038	0.7810675574992412	0.19874545580646447	0.4577130122274611	0.9542772227213038	0.29337168972219974	0.4219151351905654	0.9918551215776843	0.2946070489129673	0.4615188476384076	1.0351438936857227	0.2301819154761226	0.4974157691920557	1.0590174109977573
